<svg width="98" height="156" viewBox="0 0 98 156" fill="none" xmlns="http://www.w3.org/2000/svg">
<path d="M46.958 0C57.6002 0 67.6063 4.14478 75.1318 11.6699C82.6572 19.1954 86.8017 29.2008 86.8018 39.8428V45.041C90.5013 46.9846 92.9999 50.936 93 55.3779C93 58.4518 91.8355 61.3521 89.7139 63.5527C87.5587 65.7756 84.6877 67 81.6299 67H77.79C74.8335 73.2987 69.9959 78.5412 63.9121 82.0645V86.708L78.7256 92.2891C78.8209 92.3253 78.915 92.3644 79.0078 92.4072C90.545 97.7262 98 109.204 98 121.648V151.261C97.9993 153.614 96.0916 155.521 93.7383 155.521H4.26074C1.90792 155.521 0.000261777 153.614 0 151.261V122.783C0 109.484 7.58533 97.5386 19.7949 91.6084C19.8161 91.598 19.8372 91.5881 19.8584 91.5781L29.8252 86.9395V82.6025C27.1895 81.1489 24.773 79.358 22.6152 77.2529C19.9212 74.6248 17.6853 71.5256 16.0449 68.1738H12.5059C9.14255 68.1738 5.98477 66.8268 3.61426 64.3818C1.28088 61.9615 0.000119872 58.7722 0 55.3916C0 50.3874 2.88258 45.9479 7.11523 43.8691V39.8428C7.11544 17.8734 24.9887 0.000150543 46.958 0ZM63.042 95.4873C60.786 102.836 54.3888 108.149 46.8682 108.149C42.2317 108.149 37.8978 106.167 34.6631 102.569C32.9261 100.637 31.6239 98.3592 30.8105 95.8809L23.4883 99.2881C14.2563 103.786 8.52148 112.786 8.52148 122.783V146.999H89.4775V121.648C89.4775 112.565 84.0249 104.165 75.5723 100.207L63.042 95.4873ZM55.3906 85.6055C52.4287 86.3986 49.3614 86.8018 46.2168 86.8018C43.5347 86.8017 40.9042 86.4953 38.3467 85.8906V89.5732C38.3477 89.6241 38.3485 89.6749 38.3477 89.7256C38.3632 92.4495 39.3033 94.9847 41 96.8721C42.5969 98.6487 44.6809 99.6268 46.8682 99.627C51.5671 99.627 55.3905 95.155 55.3906 89.6572V85.6055ZM59.6963 38.5654C53.2391 42.1261 39.213 48.7452 21.3037 50.6729V54.0742C21.3037 56.9284 21.8125 59.725 22.8154 62.3877C22.821 62.4023 22.8266 62.4169 22.832 62.4316C24.0577 65.674 26.0392 68.6883 28.5654 71.1523C30.6759 73.2108 33.1193 74.8701 35.8281 76.083C39.0927 77.5401 42.5898 78.2802 46.2168 78.2803C50.2787 78.2803 54.164 77.4045 57.7676 75.6797C57.7941 75.6666 57.8209 75.6541 57.8477 75.6416C63.6407 72.8502 68.1526 68.1094 70.5576 62.2861C71.8026 59.2761 72.4336 56.0873 72.4336 52.8047V48.9238C68.2474 47.1638 63.4838 44.0554 59.6963 38.5654ZM54.4893 63.9707C55.7499 62.6763 57.7941 62.6762 59.0547 63.9707C60.3153 65.2654 60.3151 67.3644 59.0547 68.6592C52.121 75.7799 40.879 75.7799 33.9453 68.6592C32.6849 67.3643 32.6847 65.2654 33.9453 63.9707C35.2059 62.6762 37.2501 62.6763 38.5107 63.9707C42.9231 68.5022 50.077 68.5022 54.4893 63.9707ZM12.7822 51.207C12.4377 51.2123 12.093 51.2154 11.748 51.2168C9.89361 51.594 8.52148 53.3482 8.52148 55.3916C8.5216 56.5548 8.95475 57.6444 9.74023 58.459C10.4834 59.2253 11.4687 59.6523 12.5059 59.6523H13.2695C12.9468 57.819 12.7822 55.9558 12.7822 54.0742V51.207ZM34.0879 59.6523C27.9687 59.5383 28.8938 50.1273 34.9189 51.2158C39.8564 52.0724 39.0925 59.7708 34.0879 59.6523ZM59.6514 59.6523C53.5338 59.5393 54.4567 50.1266 60.4824 51.2158C65.4194 52.0701 64.6554 59.7726 59.6514 59.6523ZM80.9551 52.8047C80.9551 54.9883 80.747 57.1422 80.333 59.252H81.6299C82.573 59.252 83.4689 58.8638 84.1445 58.167C84.8587 57.4263 85.252 56.4356 85.252 55.3779C85.2519 53.4465 83.9039 51.7996 82.1162 51.5479C81.7017 51.4895 81.3118 51.3667 80.9551 51.1924V52.8047ZM46.959 8.52148C29.6885 8.52148 15.6379 22.5724 15.6377 39.8428V42.5869C15.9962 42.5678 16.3605 42.546 16.7236 42.5186C16.7382 42.5173 16.7525 42.5165 16.7666 42.5156C40.8114 40.9502 58.6364 29.3084 58.8311 29.1797C59.8484 28.506 61.1086 28.2982 62.2861 28.6123C63.4648 28.9268 64.4544 29.7301 65 30.8213C68.4706 37.7584 73.9328 40.6492 77.9102 41.8525C77.9343 41.8597 77.9585 41.8664 77.9824 41.874C78.083 41.9041 78.1821 41.9339 78.2803 41.9619V39.8438C78.2803 31.4777 75.0225 23.6124 69.1064 17.6963C63.19 11.7798 55.3245 8.52156 46.959 8.52148Z" fill="#8418C3"/>
</svg>
