<svg width="98" height="156" viewBox="0 0 98 156" fill="none" xmlns="http://www.w3.org/2000/svg">
<path d="M46.216 86.802C41.3843 86.802 36.7186 85.8133 32.3491 83.8631C28.7174 82.237 25.444 80.0137 22.6141 77.2529C19.1942 73.9166 16.5087 69.8231 14.8484 65.4145C13.4774 61.784 12.7812 57.9676 12.7812 54.0741V46.7666C12.7812 44.4132 14.6891 42.5058 17.0421 42.5058C19.3951 42.5058 21.303 44.4136 21.303 46.7666V54.0741C21.303 56.9352 21.8139 59.7385 22.8217 62.4069C24.0467 65.6588 26.0319 68.6821 28.5647 71.1525C30.6752 73.2109 33.1181 74.8699 35.8269 76.0829C39.0916 77.54 42.5889 78.2799 46.216 78.2799C50.2921 78.2799 54.1906 77.3994 57.8048 75.6626C63.6181 72.8739 68.1461 68.1237 70.557 62.2863C71.802 59.2762 72.4328 56.0872 72.4328 52.8046V45.9361C72.4328 43.5826 74.3406 41.6752 76.6936 41.6752C79.0467 41.6752 80.9545 43.583 80.9545 45.9361V52.8046C80.9545 57.2107 80.1056 61.4957 78.4325 65.5414C75.2185 73.3233 69.2026 79.6472 61.4931 83.3446C56.7209 85.6386 51.58 86.802 46.216 86.802Z" fill="#8418C3"/>
<path d="M82.5395 51.2493C82.1812 51.2493 81.8334 51.2052 81.5013 51.1219C81.4135 51.1273 81.3249 51.1303 81.2355 51.1303H81.2226C81.0723 51.1303 80.9225 51.1223 80.7732 51.1065C79.5765 50.9796 77.6832 50.6871 75.4596 50.0147C70.7061 48.5804 64.4359 45.4384 59.6944 38.5657C52.7681 42.3851 37.1331 49.7247 17.3381 51.0171C16.7456 51.0616 16.1493 51.0932 15.5484 51.1244C14.1674 51.1877 12.771 51.2197 11.3741 51.2197C9.02068 51.2197 7.11328 49.3119 7.11328 46.9589V39.8432C7.11328 17.8736 24.9868 3.8147e-05 46.9564 3.8147e-05C57.5985 3.8147e-05 67.6041 4.1448 75.1296 11.6699C82.6552 19.1955 86.7995 29.201 86.7995 39.8432V46.9888C86.7999 49.3419 84.8925 51.2493 82.5395 51.2493ZM46.9568 8.52174C29.6862 8.52174 15.6354 22.5726 15.6354 39.8432V42.5865C15.9941 42.5674 16.3586 42.5457 16.7218 42.5183C16.7364 42.517 16.7505 42.5162 16.7647 42.5154C40.8214 40.9492 58.6521 29.2967 58.8294 29.1794C59.8467 28.5057 61.1067 28.2985 62.2842 28.6127C63.463 28.9272 64.4529 29.7303 64.9985 30.8217C68.4737 37.7681 73.9454 40.6571 77.9241 41.8575C78.044 41.8937 78.1622 41.9282 78.2787 41.9615V39.8436C78.2787 31.4775 75.0206 23.6124 69.1045 17.6963C63.188 11.7798 55.3225 8.52174 46.9568 8.52174Z" fill="#8418C3"/>
<path d="M46.8676 108.149C42.231 108.149 37.8965 106.168 34.6618 102.57C31.5423 99.0998 29.8242 94.514 29.8242 89.6569V79.9722C29.8242 77.6191 31.732 75.7113 34.0851 75.7113C36.4385 75.7113 38.3459 77.6191 38.3459 79.9722V89.6569C38.3459 92.4069 39.288 94.9692 40.999 96.8724C42.596 98.6492 44.6802 99.6274 46.8676 99.6274C51.5666 99.6274 55.3893 95.1548 55.3893 89.6569V79.5032C55.3893 77.1502 57.2971 75.2424 59.6502 75.2424C62.0032 75.2424 63.911 77.1502 63.911 79.5032V89.6569C63.911 99.8534 56.2652 108.149 46.8676 108.149Z" fill="#8418C3"/>
<path d="M93.7387 155.521H4.26085C1.90781 155.521 0 153.613 0 151.26V122.783C0 109.484 7.58506 97.5386 19.7947 91.6083C19.8159 91.5979 19.8371 91.5879 19.8583 91.578L32.2893 85.7942C34.423 84.8022 36.9571 85.7264 37.9499 87.8597C38.9427 89.9935 38.0177 92.5279 35.8844 93.5203L23.4879 99.2883C14.256 103.786 8.5217 112.786 8.5217 122.783V146.999H89.4779V121.648C89.4779 112.565 84.0253 104.165 75.5727 100.207L58.1502 93.6447C55.9478 92.815 54.8352 90.3575 55.6649 88.1551C56.4941 85.9531 58.952 84.8405 61.154 85.6698L78.7259 92.2887C78.8212 92.3249 78.9152 92.364 79.008 92.4068C90.5452 97.7258 98 109.204 98 121.648V151.26C97.9996 153.613 96.0922 155.521 93.7387 155.521Z" fill="#8418C3"/>
<path d="M18.8372 68.1737H12.5059C9.14252 68.1737 5.98433 66.8272 3.61382 64.3822C1.28034 61.9617 0 58.7719 0 55.3911C0 49.0448 4.63534 43.6055 10.7824 42.7396C13.1109 42.4126 15.2675 44.0341 15.5958 46.3647C15.9241 48.6948 14.3013 50.8498 11.9712 51.1781C10.0047 51.4548 8.5217 53.2665 8.5217 55.3911C8.5217 56.5545 8.95445 57.6439 9.74004 58.4586C10.4832 59.2251 11.4681 59.652 12.5054 59.652H18.8368C21.1898 59.652 23.0976 61.5598 23.0976 63.9128C23.0981 66.2659 21.1902 68.1737 18.8372 68.1737Z" fill="#8418C3"/>
<path d="M59.6504 59.6519C53.5325 59.5392 54.4554 50.1262 60.4814 51.2155C65.4184 52.0698 64.6544 59.7722 59.6504 59.6519Z" fill="#8418C3"/>
<path d="M34.0881 59.652C27.969 59.5379 28.894 50.127 34.9191 51.2155C39.8569 52.0719 39.093 59.7705 34.0881 59.652Z" fill="#8418C3"/>
</svg>
