<svg width="114" height="106" viewBox="0 0 114 106" fill="none" xmlns="http://www.w3.org/2000/svg">
<path d="M57.4404 0C70.4583 0 82.6978 5.03734 91.9033 14.1826C101.109 23.3283 106.178 35.4878 106.178 48.4209V55.1641C110.859 57.7321 114 62.7743 114 68.4277C114 72.4139 112.48 76.1745 109.711 79.0283C106.898 81.9111 103.15 83.499 99.1582 83.499H94.1006C89.9175 91.1889 83.3384 97.421 75.2227 101.288C69.3851 104.076 63.0965 105.49 56.5352 105.49C50.6249 105.49 44.918 104.288 39.5732 101.918C35.1308 99.9418 31.1266 97.2399 27.665 93.8848C24.3697 90.6909 21.6345 86.9248 19.6279 82.8516H15.2979C11.1838 82.8516 7.32058 81.2145 4.4209 78.2432C1.5665 75.3016 0 71.4251 0 67.3164C4.07269e-05 61.235 3.52574 55.8398 8.70312 53.3135V48.4209C8.70326 21.7215 30.5666 8.12119e-05 57.4404 0ZM73.0225 46.8691C65.124 51.1963 47.9671 59.2391 26.0605 61.582V65.7158C26.0605 69.1929 26.6862 72.5998 27.9189 75.8428C29.4174 79.7947 31.8452 83.4695 34.9434 86.4717C37.5249 88.9733 40.5137 90.9888 43.8271 92.4629C47.8206 94.2337 52.0984 95.1328 56.5352 95.1328C61.5212 95.1328 66.2899 94.0629 70.7109 91.9521C77.8219 88.5631 83.3605 82.7904 86.3096 75.6963C87.8325 72.0382 88.6045 68.1622 88.6045 64.1729V59.458C83.4835 57.3192 77.656 53.5416 73.0225 46.8691ZM42.3867 83.4805C50.8577 74.8619 64.5924 74.862 73.0635 83.4805C74.6037 85.0476 74.6037 87.5882 73.0635 89.1553C71.5233 90.7222 69.0265 90.7222 67.4863 89.1553C62.0957 83.6706 53.3555 83.6707 47.9648 89.1553C46.4246 90.7222 43.9269 90.7222 42.3867 89.1553C40.8468 87.5881 40.8467 85.0475 42.3867 83.4805ZM99.0283 64.1729C99.0283 67.3266 98.6654 70.4289 97.9512 73.4512H99.1592C100.39 73.4511 101.559 72.9476 102.441 72.0439C103.373 71.0834 103.887 69.7992 103.887 68.4277C103.887 65.9227 102.127 63.7862 99.793 63.46C99.53 63.4231 99.2749 63.3661 99.0283 63.292V64.1729ZM15.6367 62.2314C15.2145 62.2379 14.7919 62.2424 14.3691 62.2441C12.1015 62.7032 10.4239 64.8336 10.4238 67.3164C10.4238 68.7301 10.9533 70.0539 11.9141 71.0439C12.8231 71.9754 14.028 72.4951 15.2969 72.4951H16.2324C15.8376 70.2671 15.6367 68.0025 15.6367 65.7158V62.2314ZM41.6934 72.4951C34.2082 72.3566 35.3398 60.9193 42.71 62.2422C48.7495 63.2833 47.815 72.6389 41.6934 72.4951ZM72.9697 72.4951C65.4866 72.3577 66.6155 60.9186 73.9863 62.2422C80.0255 63.2804 79.0908 72.6413 72.9697 72.4951ZM57.4414 10.3564C36.3155 10.3564 19.1281 27.4321 19.1279 48.4209V51.7549C19.5666 51.7316 20.0128 51.7052 20.457 51.6719C20.4746 51.6704 20.4917 51.6699 20.5088 51.6689C49.9241 49.7663 71.7299 35.6157 71.9639 35.4619C73.2083 34.6432 74.75 34.3907 76.1904 34.7725C77.6321 35.1548 78.8425 36.131 79.5098 37.457C83.748 45.8734 90.4142 49.3886 95.2773 50.8555C95.3169 50.8669 95.3564 50.8783 95.3955 50.8906C95.5167 50.9266 95.6365 50.9615 95.7549 50.9951V48.4219C95.7549 38.2546 91.77 28.6957 84.5332 21.5059C77.296 14.3156 67.6745 10.3565 57.4414 10.3564Z" fill="#8418C3"/>
</svg>
