<svg width="114" height="106" viewBox="0 0 114 106" fill="none" xmlns="http://www.w3.org/2000/svg">
<path d="M57.084 0C70.0212 0 82.1845 5.03739 91.333 14.1826C100.481 23.3283 105.519 35.4877 105.52 48.4209V53.585C110.544 55.9409 114 61.2899 114 67.3398C114 71.3187 112.546 75.0732 109.895 77.9219C107.201 80.7994 103.612 82.3838 99.791 82.3838H94.0996C89.9847 90.5867 83.208 97.2356 74.7559 101.288C68.9545 104.076 62.7052 105.49 56.1846 105.49C50.3108 105.49 44.6389 104.288 39.3271 101.918C34.9123 99.9418 30.9323 97.24 27.4922 93.8848C24.2175 90.691 21.4999 86.9247 19.5059 82.8516H15.2031C11.1145 82.8516 7.27528 81.2145 4.39355 78.2432C1.55684 75.3016 0 71.4251 0 67.3164C5.96391e-05 61.2353 3.50347 55.84 8.64844 53.3135V48.4209C8.64859 21.7216 30.3767 0.000197571 57.084 0ZM72.5693 46.8691C64.7196 51.1963 47.6692 59.2392 25.8984 61.582V65.7158C25.8984 69.1929 26.52 72.5998 27.7451 75.8428C29.2343 79.7947 31.6476 83.4694 34.7266 86.4717C37.292 88.9731 40.2619 90.9889 43.5547 92.4629C47.5235 94.2338 51.7752 95.1328 56.1846 95.1328C61.1397 95.1328 65.8788 94.0629 70.2725 91.9521C77.3394 88.5631 82.8436 82.7904 85.7744 75.6963C87.2879 72.0382 88.0547 68.1622 88.0547 64.1729V59.458C82.9655 57.3192 77.174 53.5415 72.5693 46.8691ZM67.3652 76.2109C69.0281 74.4466 71.7247 74.4467 73.3877 76.2109C75.0506 77.9755 75.0504 80.836 73.3877 82.6006C64.2416 92.3051 49.4127 92.3051 40.2666 82.6006C38.6039 80.8359 38.6038 77.9754 40.2666 76.2109C41.9295 74.4466 44.6261 74.4466 46.2891 76.2109C52.1093 82.3867 61.5451 82.3866 67.3652 76.2109ZM15.5391 62.2324C15.1191 62.2389 14.6988 62.2424 14.2783 62.2441C12.0257 62.704 10.3594 64.8343 10.3594 67.3164C10.3594 68.7303 10.8858 70.0548 11.8408 71.0449C12.7442 71.9761 13.9413 72.4951 15.2021 72.4951H16.1318C15.7395 70.2671 15.5391 68.0025 15.5391 65.7158V62.2324ZM41.4463 72.4951C34.0079 72.3562 35.1327 60.9193 42.457 62.2422C48.4595 63.2831 47.5304 72.6392 41.4463 72.4951ZM72.5205 72.4951C65.0834 72.3579 66.2058 60.9183 73.5312 62.2422C79.5325 63.2808 78.6035 72.6413 72.5205 72.4951ZM98.4141 64.1729C98.4141 66.9462 98.1354 69.68 97.5859 72.3545H99.792C100.97 72.3544 102.089 71.8521 102.934 70.9502C103.826 69.9914 104.318 68.709 104.318 67.3398C104.318 64.8394 102.633 62.7075 100.398 62.3818C100.194 62.352 99.9949 62.3075 99.8008 62.2529C99.5547 62.2274 99.3135 62.1867 99.0791 62.1279C98.9724 62.1345 98.8646 62.1387 98.7559 62.1387H98.7402C98.6313 62.1387 98.5227 62.1328 98.4141 62.126V64.1729ZM57.085 10.3564C36.0899 10.3564 19.0089 27.4322 19.0088 48.4209V51.7549C19.4447 51.7316 19.8876 51.7052 20.3291 51.6719C20.3468 51.6704 20.3646 51.67 20.3818 51.6689C49.612 49.7664 71.281 35.6183 71.5176 35.4619C72.7543 34.6432 74.2863 34.3907 75.7178 34.7725C77.1507 35.1547 78.3544 36.1307 79.0176 37.457C83.2291 45.8726 89.8526 49.3874 94.6855 50.8545C94.7274 50.8667 94.7691 50.8794 94.8105 50.8926C94.9289 50.9279 95.0455 50.9631 95.1611 50.9961V48.4219C95.1611 38.2546 91.2007 28.6957 84.0088 21.5059C76.8164 14.3157 67.2546 10.3565 57.085 10.3564Z" fill="#8418C3"/>
</svg>
