<svg width="64" height="101" viewBox="0 0 64 101" fill="none" xmlns="http://www.w3.org/2000/svg">
<path d="M30.156 56.3304C27.0225 56.3304 23.9966 55.6892 21.1629 54.4244C18.8077 53.3699 16.6848 51.928 14.8495 50.1376C12.6316 47.9739 10.89 45.3191 9.81328 42.4601C8.92412 40.1056 8.47266 37.6305 8.47266 35.1055V30.3664C8.47266 28.8401 9.70992 27.6031 11.2359 27.6031C12.7619 27.6031 13.9992 28.8404 13.9992 30.3664V35.1055C13.9992 36.961 14.3306 38.779 14.9842 40.5096C15.7786 42.6185 17.0661 44.5792 18.7086 46.1813C20.0773 47.5163 21.6616 48.5921 23.4184 49.3788C25.5356 50.3238 27.8037 50.8036 30.156 50.8036C32.7994 50.8036 35.3277 50.2326 37.6716 49.1062C41.4417 47.2977 44.3782 44.2171 45.9417 40.4313C46.7491 38.4792 47.1582 36.4111 47.1582 34.2822V29.8278C47.1582 28.3015 48.3955 27.0645 49.9215 27.0645C51.4475 27.0645 52.6848 28.3018 52.6848 29.8278V34.2822C52.6848 37.1397 52.1343 39.9186 51.0492 42.5424C48.9649 47.5891 45.0634 51.6903 40.0636 54.0882C36.9686 55.5759 33.6346 56.3304 30.156 56.3304Z" fill="#8418C3"/>
<path d="M53.7127 33.2735C53.4804 33.2735 53.2548 33.2449 53.0395 33.1909C52.9825 33.1945 52.9251 33.1963 52.867 33.1963H52.8587C52.7613 33.1963 52.6641 33.1912 52.5672 33.181C51.7911 33.0987 50.5633 32.909 49.1212 32.4729C46.0385 31.5427 41.9721 29.5051 38.8971 25.0479C34.4052 27.5249 24.2655 32.2848 11.4279 33.1229C11.0437 33.1518 10.657 33.1723 10.2673 33.1926C9.37166 33.2336 8.46604 33.2544 7.56015 33.2544C6.03387 33.2544 4.79688 32.0171 4.79688 30.4911V25.8764C4.79688 11.6285 16.3883 0.0370636 30.6362 0.0370636C37.5379 0.0370636 44.0267 2.72505 48.9072 7.6053C53.7878 12.4858 56.4755 18.9747 56.4755 25.8764V30.5105C56.4757 32.0365 55.2388 33.2735 53.7127 33.2735ZM30.6364 5.56361C19.436 5.56361 10.3237 14.6759 10.3237 25.8764V27.6555C10.5563 27.6431 10.7927 27.629 11.0283 27.6112C11.0377 27.6104 11.0469 27.6099 11.0561 27.6094C26.6575 26.5936 38.2211 19.0367 38.3361 18.9606C38.9959 18.5237 39.813 18.3894 40.5767 18.5931C41.3412 18.7971 41.9831 19.3179 42.3369 20.0257C44.5907 24.5306 48.1392 26.4042 50.7196 27.1827C50.7973 27.2062 50.8739 27.2286 50.9495 27.2502V25.8766C50.9495 20.451 48.8365 15.3503 44.9998 11.5136C41.1628 7.67654 36.0618 5.56361 30.6364 5.56361Z" fill="#8418C3"/>
<path d="M30.5804 70.1746C27.5735 70.1746 24.7625 68.8895 22.6646 66.5561C20.6416 64.3059 19.5273 61.3318 19.5273 58.1819V51.9011C19.5273 50.3751 20.7646 49.1378 22.2906 49.1378C23.8169 49.1378 25.0539 50.3751 25.0539 51.9011V58.1819C25.0539 59.9653 25.6648 61.627 26.7745 62.8613C27.8102 64.0136 29.1618 64.648 30.5804 64.648C33.6279 64.648 36.107 61.7474 36.107 58.1819V51.597C36.107 50.071 37.3443 48.8337 38.8703 48.8337C40.3963 48.8337 41.6335 50.071 41.6335 51.597V58.1819C41.6335 64.7946 36.675 70.1746 30.5804 70.1746Z" fill="#8418C3"/>
<path d="M60.9756 100.897H2.94687C1.42086 100.897 0.183594 99.6593 0.183594 98.1333V79.6649C0.183594 71.0402 5.10271 63.2933 13.0209 59.4474C13.0347 59.4407 13.0485 59.4342 13.0622 59.4277L21.124 55.6768C22.5078 55.0335 24.1512 55.6328 24.7951 57.0163C25.4389 58.4001 24.8391 60.0438 23.4555 60.6874L15.4161 64.4281C9.42896 67.3449 5.71014 73.1815 5.71014 79.6649V95.37H58.2123V78.9291C58.2123 73.0385 54.6762 67.591 49.1945 65.0242L37.8955 60.7681C36.4672 60.23 35.7456 58.6363 36.2837 57.2079C36.8215 55.7799 38.4155 55.0583 39.8436 55.5961L51.2394 59.8886C51.3012 59.9121 51.3622 59.9375 51.4223 59.9653C58.9045 63.4148 63.7391 70.8586 63.7391 78.9291V98.1333C63.7389 99.6593 62.5019 100.897 60.9756 100.897Z" fill="#8418C3"/>
<path d="M12.4 44.2494H8.29396C6.11276 44.2494 4.06459 43.3762 2.52725 41.7906C1.01393 40.2208 0.183594 38.1522 0.183594 35.9596C0.183594 31.8439 3.18973 28.3164 7.17624 27.7548C8.68633 27.5427 10.085 28.5943 10.2979 30.1058C10.5108 31.6169 9.45837 33.0145 7.94721 33.2274C6.67189 33.4068 5.71014 34.5818 5.71014 35.9596C5.71014 36.7141 5.99079 37.4206 6.50026 37.949C6.98222 38.446 7.62096 38.7229 8.29369 38.7229H12.3997C13.9258 38.7229 15.163 39.9602 15.163 41.4862C15.1633 43.0122 13.926 44.2494 12.4 44.2494Z" fill="#8418C3"/>
<path d="M38.8711 38.7229C34.9035 38.6498 35.502 32.5452 39.41 33.2517C42.6118 33.8057 42.1163 38.8009 38.8711 38.7229Z" fill="#8418C3"/>
<path d="M22.2931 38.7229C18.3247 38.6489 18.9246 32.5457 22.832 33.2517C26.0343 33.807 25.5389 38.7998 22.2931 38.7229Z" fill="#8418C3"/>
<path d="M23.4161 49.7644C22.3888 50.8193 20.7234 50.8193 19.6962 49.7644C18.669 48.7094 18.669 46.9991 19.6962 45.9441C25.3459 40.1421 34.5057 40.1421 40.1554 45.9441C41.1826 46.9992 41.1826 48.7094 40.1554 49.7644C39.1282 50.8193 37.4627 50.8193 36.4355 49.7644C32.8403 46.0721 27.0112 46.0721 23.4161 49.7644Z" fill="#8418C3"/>
</svg>
