<svg width="114" height="106" viewBox="0 0 114 106" fill="none" xmlns="http://www.w3.org/2000/svg">
<path d="M57.0654 0C69.9982 7.8233e-05 82.1573 5.03691 91.3027 14.1816C100.448 23.3272 105.485 35.4869 105.485 48.4199V53.9033C110.558 56.4682 114 61.8315 114 67.8682C114 71.9879 112.439 75.8747 109.596 78.8242C106.707 81.8035 102.859 83.4442 98.7607 83.4443H93.5156C89.3612 91.1583 82.8138 97.4103 74.7324 101.286C68.933 104.074 62.6855 105.487 56.167 105.487C50.2951 105.487 44.6245 104.286 39.3145 101.916C34.9011 99.9399 30.9234 97.2378 27.4844 93.8828C24.2105 90.689 21.4935 86.9228 19.5 82.8496H15.1982C11.1109 82.8496 7.27241 81.2125 4.3916 78.2412C1.55605 75.2998 9.52909e-05 71.4237 0 67.3154C0 61.2344 3.50226 55.839 8.64551 53.3125V48.4199C8.6456 21.721 30.3665 0 57.0654 0ZM67.7676 93.0176C61.1881 86.4359 50.76 86.3231 44.0488 92.6797C47.8706 94.3044 51.9462 95.1309 56.167 95.1309C60.2004 95.1308 64.0904 94.4206 67.7676 93.0176ZM72.5449 46.8682C64.6978 51.1952 47.6536 59.2381 25.8906 61.5811V65.7148C25.8907 69.1917 26.5117 72.5981 27.7363 75.8408C29.225 79.7926 31.6378 83.4676 34.7158 86.4697C35.0193 86.7657 35.3289 87.0546 35.6436 87.3369C35.8744 86.8639 36.1812 86.4201 36.5654 86.0254C47.1523 75.1529 64.3174 75.1529 74.9043 86.0254C75.5332 86.6714 75.955 87.449 76.1729 88.2715C80.3912 84.9665 83.6986 80.6543 85.7471 75.6943C87.26 72.0364 88.0273 68.1611 88.0273 64.1719V59.4561C82.9394 57.3174 77.1486 53.541 72.5449 46.8682ZM98.3828 64.1719C98.3828 67.1901 98.0555 70.1616 97.4053 73.0605H98.7607C100.025 73.0605 101.225 72.5395 102.131 71.6055C103.088 70.6127 103.615 69.2857 103.615 67.8682C103.615 65.36 101.919 63.209 99.6348 62.7705L99.1484 62.6895C98.8845 62.6385 98.6291 62.5676 98.3828 62.4795V64.1719ZM15.5342 62.2305C15.1146 62.2369 14.6946 62.2415 14.2744 62.2432C12.0222 62.7027 10.3564 64.8331 10.3564 67.3154C10.3565 68.7291 10.8823 70.053 11.8369 71.043C12.74 71.9743 13.9368 72.4931 15.1973 72.4932H16.126C15.7338 70.2654 15.5342 68.0012 15.5342 65.7148V62.2305ZM41.4326 72.4932C33.9962 72.3546 35.1203 60.9174 42.4424 62.2402C48.4429 63.281 47.5145 72.637 41.4326 72.4932ZM72.4971 72.4932C65.0622 72.3561 66.1837 60.9164 73.5068 62.2402C79.5066 63.2784 78.5781 72.6392 72.4971 72.4932ZM57.0654 10.3564C36.0772 10.3566 19.002 27.4317 19.002 48.4199V51.7539C19.4378 51.7306 19.8809 51.7043 20.3223 51.6709C20.3398 51.6694 20.3569 51.669 20.374 51.668C49.6094 49.7646 71.2787 35.6035 71.4941 35.4609C72.7305 34.6423 74.2614 34.3907 75.6924 34.7725C77.1249 35.1547 78.3283 36.1307 78.9912 37.457C83.193 45.8552 89.7962 49.3724 94.625 50.8447C94.6837 50.8614 94.742 50.8788 94.7998 50.8975C94.9111 50.9306 95.021 50.963 95.1299 50.9941V48.4209C95.1299 38.254 91.1709 28.6955 83.9814 21.5059C76.7913 14.3157 67.232 10.3564 57.0654 10.3564Z" fill="#8418C3"/>
</svg>
