<svg width="37" height="37" viewBox="0 0 37 37" fill="none" xmlns="http://www.w3.org/2000/svg">
<path d="M1.83334 9.16668C1.28333 9.16668 0.916668 8.98335 0.550001 8.61668C-0.183334 7.88335 -0.183334 6.78334 0.550001 6.05001L6.05001 0.550004C6.78334 -0.18333 7.88334 -0.18333 8.61668 0.550004C9.35001 1.28334 9.35001 2.38334 8.61668 3.11667L3.11667 8.61668C2.75 8.98335 2.38334 9.16668 1.83334 9.16668Z" fill="#8418C3"/>
<path d="M29.3333 36.6667C28.7833 36.6667 28.4167 36.4834 28.05 36.1167C27.3167 35.3834 27.3167 34.2834 28.05 33.5501L33.55 28.05C34.2833 27.3167 35.3833 27.3167 36.1167 28.05C36.85 28.7834 36.85 29.8834 36.1167 30.6167L30.6167 36.1167C30.25 36.4834 29.8833 36.6667 29.3333 36.6667Z" fill="#8418C3"/>
<path d="M1.83334 18.3334C1.28333 18.3334 0.916668 18.15 0.550001 17.7834C-0.183334 17.05 -0.183334 15.95 0.550001 15.2167L15.2167 0.550004C15.95 -0.18333 17.05 -0.18333 17.7834 0.550004C18.5167 1.28334 18.5167 2.38334 17.7834 3.11667L3.11667 17.7834C2.75 18.15 2.38334 18.3334 1.83334 18.3334Z" fill="#8418C3"/>
<path d="M1.83334 27.5C1.28333 27.5 0.916668 27.3167 0.550001 26.95C-0.183334 26.2167 -0.183334 25.1167 0.550001 24.3834L24.3834 0.550004C25.1167 -0.18333 26.2167 -0.18333 26.95 0.550004C27.6834 1.28334 27.6834 2.38334 26.95 3.11667L3.11667 26.95C2.75 27.3167 2.38334 27.5 1.83334 27.5Z" fill="#8418C3"/>
<path d="M1.83334 36.6667C1.28333 36.6667 0.916668 36.4834 0.550001 36.1167C-0.183334 35.3834 -0.183334 34.2834 0.550001 33.55L33.55 0.550004C34.2834 -0.18333 35.3834 -0.18333 36.1167 0.550004C36.85 1.28334 36.85 2.38334 36.1167 3.11667L3.11667 36.1167C2.75 36.4834 2.38334 36.6667 1.83334 36.6667Z" fill="#8418C3"/>
<path d="M10.9994 36.6667C10.4493 36.6667 10.0827 36.4834 9.71602 36.1167C8.98268 35.3834 8.98268 34.2834 9.71602 33.55L33.5494 9.71667C34.2827 8.98334 35.3827 8.98334 36.116 9.71667C36.8494 10.45 36.8494 11.55 36.116 12.2833L12.2827 36.1167C11.916 36.4834 11.5494 36.6667 10.9994 36.6667Z" fill="#8418C3"/>
<path d="M20.1673 36.6667C19.6173 36.6667 19.2507 36.4834 18.884 36.1167C18.1507 35.3834 18.1507 34.2834 18.884 33.55L33.5507 18.8833C34.284 18.15 35.384 18.15 36.1173 18.8833C36.8507 19.6167 36.8507 20.7167 36.1173 21.45L21.4507 36.1167C21.084 36.4834 20.7173 36.6667 20.1673 36.6667Z" fill="#8418C3"/>
</svg>
