<svg width="104" height="111" viewBox="0 0 104 111" fill="none" xmlns="http://www.w3.org/2000/svg">
<path d="M51.5703 0C65.4281 8.66772e-05 78.4329 5.87265 88.1885 16.5371C97.83 27.076 103.14 41.0627 103.14 55.9189V84.0635C103.14 91.5349 99.0583 98.4312 92.7422 101.633C92.5808 101.715 92.4147 101.788 92.2451 101.852L73.96 108.698C73.9211 108.713 73.8811 108.727 73.8418 108.74L69.3271 110.436C68.7583 110.649 68.1747 110.75 67.6016 110.75C65.6135 110.75 63.743 109.533 63.0029 107.562C62.0501 105.023 63.3359 102.192 65.875 101.238L70.5059 99.499C70.5476 99.4837 70.5897 99.4685 70.6318 99.4541L88.5146 92.7588C91.4398 91.1645 93.3173 87.7802 93.3174 84.0635V55.9189C93.3173 43.5233 88.9219 31.8919 80.9414 23.168C73.0688 14.5621 62.6381 9.82333 51.5703 9.82324C28.551 9.82324 9.8234 30.5016 9.82324 55.9189V84.0635C9.82337 87.7801 11.6999 91.164 14.625 92.7588L32.7148 99.5312C32.7589 99.5461 32.8026 99.5618 32.8457 99.5781L37.2656 101.238C39.8048 102.192 41.0907 105.024 40.1367 107.563C39.1832 110.102 36.3521 111.39 33.8125 110.435L29.5127 108.82C29.4724 108.806 29.4314 108.791 29.3916 108.776L10.8955 101.852C10.7253 101.788 10.559 101.715 10.3975 101.633C4.0813 98.4312 0.000135169 91.5349 0 84.0635V55.9189C0.000163434 25.0849 23.1345 0 51.5703 0ZM31.5693 33.6865C33.2624 31.7982 36.1149 31.5086 38.1523 33.0205C38.4533 33.2417 61.9106 50.287 81.585 41.9824C83.1015 41.3417 84.8378 41.5047 86.21 42.4141C87.5814 43.324 88.4062 44.8613 88.4062 46.5068V59.6279C88.4061 81.9739 71.8815 100.153 51.5703 100.153C31.2589 100.153 14.7344 81.9737 14.7344 59.6279V44.4619C14.7345 42.8419 15.333 41.2589 16.6689 40.3428C17.9779 39.4458 19.4466 39.1723 20.9248 39.7109C21.6466 39.8016 25.8884 40.0238 31.5693 33.6865ZM35.8457 43.2822C31.581 47.0747 27.6334 48.6604 24.5576 49.25V59.6279C24.5576 76.5569 36.6754 90.3291 51.5703 90.3291C66.4652 90.329 78.583 76.5564 78.583 59.6279V53.1846C60.79 57.0251 43.1982 47.8554 35.8457 43.2822ZM37.0615 78.0029C44.8552 69.9988 57.4915 69.9987 65.2852 78.0029C66.7021 79.4584 66.702 81.818 65.2852 83.2734C63.8681 84.7287 61.5704 84.7287 60.1533 83.2734C55.1938 78.1798 47.1529 78.1799 42.1934 83.2734C40.7763 84.7287 38.4786 84.7287 37.0615 83.2734C35.6445 81.8179 35.6445 79.4583 37.0615 78.0029ZM38.332 59.1006C45.2766 57.8496 46.343 68.6914 39.2891 68.8262C33.519 68.9577 32.639 60.0911 38.332 59.1006ZM63.8467 68.8262C56.7894 68.6928 57.8588 57.8469 64.8047 59.1006C70.4935 60.0901 69.6164 68.9597 63.8467 68.8262Z" fill="#8418C3"/>
</svg>
