<svg width="104" height="111" viewBox="0 0 104 111" fill="none" xmlns="http://www.w3.org/2000/svg">
<path d="M51.5703 0C65.4284 0 78.4337 5.87291 88.1895 16.5371C97.8308 27.0756 103.141 41.0615 103.141 55.917V84.0596C103.141 91.5307 99.0594 98.4264 92.7432 101.628C92.5815 101.71 92.4149 101.783 92.2451 101.847L73.96 108.692C73.9211 108.707 73.8821 108.722 73.8428 108.735L69.3271 110.43C68.7585 110.643 68.1755 110.745 67.6025 110.745C65.6145 110.745 63.743 109.528 63.0029 107.558C62.0501 105.018 63.3359 102.187 65.875 101.233L70.5068 99.4951C70.5486 99.4798 70.5906 99.4646 70.6328 99.4502L88.5146 92.7539C91.4399 91.1596 93.3173 87.7761 93.3174 84.0596V55.917C93.3174 43.5218 88.922 31.8906 80.9414 23.167C73.0687 14.5616 62.6382 9.82324 51.5703 9.82324C28.5507 9.82325 9.82324 30.5007 9.82324 55.917V84.0596C9.82334 87.7761 11.7008 91.1592 14.626 92.7539L32.7148 99.5273C32.7589 99.5422 32.8026 99.5579 32.8457 99.5742L37.2666 101.234C39.8054 102.188 41.0916 105.02 40.1377 107.559C39.1842 110.097 36.3522 111.385 33.8125 110.43L29.5127 108.815C29.4724 108.802 29.4314 108.786 29.3916 108.771L10.8955 101.847C10.7253 101.783 10.559 101.71 10.3975 101.628C4.08124 98.4264 0.000105784 91.5307 0 84.0596V55.917C0 25.0842 23.1342 4.48729e-06 51.5703 0ZM31.5684 33.6846C33.2614 31.7965 36.114 31.507 38.1514 33.0186C38.443 33.233 61.9056 50.2861 81.584 41.9805C83.1006 41.3397 84.8367 41.5027 86.209 42.4121C87.5807 43.322 88.4053 44.8593 88.4053 46.5049V59.625C88.4052 81.9701 71.8809 100.148 51.5693 100.148C31.2578 100.148 14.7334 81.9697 14.7334 59.625V44.46C14.7335 42.84 15.332 41.2569 16.668 40.3408C17.9769 39.4439 19.4456 39.1704 20.9238 39.709C21.6451 39.7996 25.8869 40.0221 31.5684 33.6846ZM61.9951 87.9453C56.0473 83.075 47.2412 83.1037 41.3271 88.0312C44.4875 89.5085 47.9458 90.3252 51.5693 90.3252C55.263 90.3252 58.7855 89.4772 61.9951 87.9453ZM35.8447 43.2803C31.58 47.0726 27.6325 48.6586 24.5566 49.248V59.625C24.5566 68.8758 28.1754 77.1842 33.8887 82.8174C33.9507 82.7501 34.015 82.6836 34.082 82.6191C43.8192 73.2688 59.6064 73.2689 69.3438 82.6191C69.3611 82.6358 69.3775 82.654 69.3945 82.6709C75.0235 77.0406 78.582 68.7966 78.582 59.625V53.1816C60.7889 57.0218 43.1971 47.8531 35.8447 43.2803ZM38.3291 61.6182C45.2733 60.3678 46.3399 71.2089 39.2861 71.3438C33.5156 71.4756 32.6358 62.6086 38.3291 61.6182ZM63.8564 71.3438C56.7992 71.2104 57.8686 60.3656 64.8145 61.6191C70.5034 62.6086 69.6264 71.4775 63.8564 71.3438Z" fill="#8418C3"/>
</svg>
