<svg width="58" height="99" viewBox="0 0 58 99" fill="none" xmlns="http://www.w3.org/2000/svg">
<path d="M38.2997 61.4606C37.1986 61.4606 36.1623 60.7872 35.7525 59.6957C35.2246 58.2892 35.9368 56.7211 37.3431 56.193L39.9084 55.2301C39.9315 55.2216 39.9546 55.2131 39.978 55.2051L49.882 51.4968C51.5021 50.6138 52.5418 48.7398 52.5418 46.6813V31.0951C52.5418 24.2302 50.1075 17.7888 45.6876 12.9573C41.3274 8.19127 35.5506 5.56677 29.4207 5.56677C16.6717 5.56677 6.29964 17.0187 6.29964 31.0951V46.6813C6.29964 48.7398 7.33934 50.6136 8.95947 51.4968L18.978 55.2479C19.0024 55.2561 19.0266 55.2649 19.0505 55.2739L21.4986 56.1933C22.9049 56.7214 23.6171 58.2897 23.0887 59.696C22.5606 61.102 20.9926 61.815 19.586 61.2861L17.2046 60.392C17.1823 60.3843 17.1597 60.376 17.1376 60.3678L6.89387 56.5325C6.79957 56.4972 6.70739 56.4568 6.61787 56.4114C3.11969 54.6383 0.859375 50.8192 0.859375 46.6813V31.0951C0.859375 14.0188 13.6719 0.126511 29.4207 0.126511C37.0958 0.126511 44.2983 3.37898 49.7014 9.28516C55.0412 15.1217 57.9821 22.8675 57.9821 31.0951V46.6813C57.9821 50.8192 55.7218 54.6383 52.2236 56.4114C52.1341 56.4568 52.0419 56.4972 51.9479 56.5325L41.821 60.3242C41.7994 60.3322 41.7777 60.3402 41.7559 60.3476L39.2552 61.2864C38.9401 61.4046 38.6171 61.4606 38.2997 61.4606Z" fill="#8418C3"/>
<path d="M29.4205 55.5922C18.1713 55.5922 9.01953 45.5243 9.01953 33.149V24.7501C9.01953 23.8528 9.35105 22.9759 10.0911 22.4685C10.816 21.9718 11.6292 21.8204 12.4479 22.1187C12.8471 22.1689 15.1964 22.2924 18.3431 18.7823C19.2808 17.7365 20.8609 17.576 21.9893 18.4133C22.1508 18.5321 35.145 27.9765 46.0436 23.3765C46.8835 23.0216 47.8451 23.1119 48.6051 23.6156C49.3648 24.1195 49.8215 24.9708 49.8215 25.8822V33.1488C49.8215 45.5243 40.6697 55.5922 29.4205 55.5922ZM14.4598 27.4017V33.149C14.4598 42.5244 21.1711 50.1517 29.4205 50.1517C37.6699 50.1517 44.3812 42.5242 44.3812 33.149V29.5804C34.5266 31.7074 24.7835 26.6289 20.7116 24.0964C18.3495 26.1968 16.1633 27.0752 14.4598 27.4017Z" fill="#8418C3"/>
<path d="M29.4203 68.8857C24.3291 68.8857 19.7192 65.1392 17.9492 59.5627C17.4384 57.9502 17.1797 56.2589 17.1797 54.5344V49.7715C17.1797 48.2694 18.3976 47.0514 19.8998 47.0514C21.402 47.0514 22.6199 48.2694 22.6199 49.7715V54.5344C22.6199 55.7008 22.7931 56.8393 23.135 57.9184C24.1843 61.2237 26.7102 63.4455 29.4203 63.4455C31.1328 63.4455 32.7761 62.5896 34.0469 61.0354C34.7636 60.1611 35.3365 59.0843 35.7053 57.9189C36.0474 56.8393 36.2206 55.7008 36.2206 54.5344V49.7715C36.2206 48.2694 37.4385 47.0514 38.9407 47.0514C40.4429 47.0514 41.6608 48.2694 41.6608 49.7715V54.5344C41.6608 56.2589 41.4021 57.9502 40.8918 59.5611C40.3082 61.4049 39.4215 63.0606 38.2562 64.482C35.9345 67.3209 32.7957 68.8857 29.4203 68.8857Z" fill="#8418C3"/>
<path d="M55.262 98.1218H3.57951C2.07733 98.1218 0.859375 96.9039 0.859375 95.4017V79.3856C0.859375 70.6052 5.29977 62.5713 12.7376 57.895C12.7485 57.8881 12.7599 57.8812 12.7711 57.8743L16.677 55.4968C17.1031 55.2373 17.5924 55.1002 18.0913 55.1002C19.5935 55.1002 20.813 56.3182 20.813 57.8203C20.813 58.8401 20.2522 59.7289 19.4224 60.1946L15.6166 62.511C9.78241 66.1871 6.29964 72.4942 6.29964 79.3856V92.6815H52.5418V78.9967C52.5418 72.351 49.2554 66.1784 43.7447 62.4613L39.6114 60.1904C38.7406 59.7369 38.1456 58.8263 38.1456 57.7768C38.1456 56.2746 39.3622 55.0566 40.8644 55.0566C41.3224 55.0566 41.7755 55.1722 42.1769 55.3927L46.4693 57.751C46.5371 57.7885 46.6035 57.8286 46.668 57.8716C53.7526 62.5928 57.9821 70.4899 57.9821 78.9967V95.4017C57.9821 96.9039 56.7641 98.1218 55.262 98.1218Z" fill="#8418C3"/>
<path d="M36.2246 39.6391C32.316 39.5653 32.9083 33.5589 36.7553 34.2533C39.906 34.8013 39.4202 39.7132 36.2246 39.6391Z" fill="#8418C3"/>
<path d="M22.6182 39.6391C19.4224 39.7121 18.9349 34.8015 22.088 34.253C25.9342 33.5602 26.525 39.5644 22.6182 39.6391Z" fill="#8418C3"/>
</svg>
