<svg width="92" height="158" viewBox="0 0 92 158" fill="none" xmlns="http://www.w3.org/2000/svg">
<path d="M60.1421 98.5238C58.3734 98.5238 56.7088 97.4421 56.0504 95.6888C55.2025 93.4294 56.3465 90.9105 58.6055 90.0622L62.7262 88.5154C62.7633 88.5018 62.8004 88.4881 62.838 88.4753L78.7473 82.5185C81.3498 81.1001 83.0199 78.0897 83.0199 74.7832V49.7462C83.0199 38.7188 79.1096 28.3716 72.0096 20.6107C65.0057 12.9548 55.7261 8.73891 45.8794 8.73891C25.4001 8.73891 8.73894 27.1346 8.73894 49.7462V74.7832C8.73894 78.0897 10.4091 81.0997 13.0115 82.5185L29.1048 88.544C29.144 88.5572 29.1828 88.5713 29.2213 88.5858L33.1538 90.0626C35.4128 90.9109 36.5568 93.4302 35.708 95.6892C34.8597 97.9477 32.3409 99.093 30.0815 98.2434L26.2561 96.8072C26.2202 96.7948 26.184 96.7816 26.1485 96.7683L9.69348 90.6076C9.542 90.5508 9.39393 90.4859 9.25013 90.413C3.63084 87.5647 0 81.43 0 74.7832V49.7462C0 22.3158 20.5813 -3.05176e-05 45.8794 -3.05176e-05C58.2082 -3.05176e-05 69.7779 5.22456 78.4571 14.7119C87.0348 24.0875 91.7588 36.5298 91.7588 49.7462V74.7832C91.7588 81.43 88.128 87.5647 82.5087 90.413C82.3649 90.4859 82.2168 90.5508 82.0658 90.6076L65.7985 96.6983C65.7639 96.7111 65.7289 96.724 65.6939 96.7359L61.6769 98.2439C61.1709 98.4338 60.652 98.5238 60.1421 98.5238Z" fill="#8418C3"/>
<path d="M45.8804 89.0971C27.8103 89.0971 13.1094 72.9245 13.1094 53.0455V39.5539C13.1094 38.1125 13.6419 36.704 14.8307 35.889C15.9952 35.091 17.3013 34.8478 18.6164 35.327C19.2578 35.4076 23.0316 35.6061 28.0863 29.9676C29.5926 28.2876 32.1306 28.0299 33.9433 29.3749C34.2027 29.5656 55.0759 44.7367 72.5828 37.3474C73.932 36.7774 75.4767 36.9224 76.6975 37.7315C77.9179 38.5409 78.6514 39.9085 78.6514 41.3726V53.0451C78.6514 72.9245 63.9505 89.0971 45.8804 89.0971ZM21.8483 43.8133V53.0455C21.8483 68.1057 32.629 80.3577 45.8804 80.3577C59.1317 80.3577 69.9125 68.1053 69.9125 53.0455V47.3132C54.0825 50.7298 38.4318 42.572 31.8908 38.5038C28.0966 41.8778 24.5848 43.2889 21.8483 43.8133Z" fill="#8418C3"/>
<path d="M45.8814 110.451C37.7031 110.451 30.2981 104.433 27.4549 95.475C26.6344 92.8849 26.2188 90.1681 26.2188 87.3979V79.747C26.2188 77.334 28.1752 75.3776 30.5882 75.3776C33.0012 75.3776 34.9577 77.334 34.9577 79.747V87.3979C34.9577 89.2715 35.2359 91.1004 35.7851 92.8337C37.4706 98.1432 41.5281 101.712 45.8814 101.712C48.6323 101.712 51.2719 100.337 53.3133 97.8406C54.4645 96.4364 55.385 94.7065 55.9772 92.8345C56.5268 91.1004 56.805 89.2715 56.805 87.3979V79.747C56.805 77.334 58.7615 75.3776 61.1745 75.3776C63.5875 75.3776 65.544 77.334 65.544 79.747V87.3979C65.544 90.1681 65.1284 92.8849 64.3087 95.4724C63.3712 98.4342 61.9468 101.094 60.0749 103.377C56.3455 107.937 51.3035 110.451 45.8814 110.451Z" fill="#8418C3"/>
<path d="M87.3894 157.414H4.36948C1.95646 157.414 0 155.458 0 153.045V127.317C0 113.213 7.13282 100.308 19.0806 92.7961C19.0981 92.785 19.1164 92.7739 19.1343 92.7628L25.4086 88.9438C26.0931 88.5269 26.8791 88.3067 27.6804 88.3067C30.0934 88.3067 32.0524 90.2632 32.0524 92.6762C32.0524 94.3143 31.1517 95.7421 29.8186 96.4901L23.7052 100.211C14.3335 106.116 8.73894 116.247 8.73894 127.317V148.675H83.0199V126.693C83.0199 116.017 77.7407 106.102 68.8887 100.131L62.2491 96.4833C60.8504 95.7549 59.8946 94.2921 59.8946 92.6062C59.8946 90.1932 61.8489 88.2368 64.2619 88.2368C64.9975 88.2368 65.7255 88.4224 66.3703 88.7765L73.2654 92.5648C73.3742 92.625 73.4809 92.6894 73.5846 92.7586C84.9648 100.342 91.7588 113.028 91.7588 126.693V153.045C91.7588 155.458 89.8024 157.414 87.3894 157.414Z" fill="#8418C3"/>
<path d="M56.8051 63.4709C50.5265 63.3522 51.4781 53.704 57.6576 54.8194C62.7188 55.6997 61.9383 63.5899 56.8051 63.4709Z" fill="#8418C3"/>
<path d="M34.9545 63.4708C29.8208 63.5881 29.0378 55.7 34.1028 54.8189C40.2811 53.7061 41.2301 63.3509 34.9545 63.4708Z" fill="#8418C3"/>
</svg>
