<svg width="92" height="158" viewBox="0 0 92 158" fill="none" xmlns="http://www.w3.org/2000/svg">
<path d="M45.8789 0C58.2077 0 69.7778 5.22455 78.457 14.7119C87.0347 24.0875 91.7588 36.5298 91.7588 49.7461V74.7832C91.7588 81.4299 88.128 87.5648 82.5088 90.4131C82.365 90.4861 82.2165 90.5507 82.0654 90.6074L74.5479 93.4219C85.3466 101.069 91.7587 113.418 91.7588 126.692V153.045C91.7587 155.458 89.8025 157.414 87.3896 157.414H4.36914C1.95626 157.414 4.25597e-05 155.458 0 153.045V127.317C2.66369e-05 113.727 6.62228 101.251 17.793 93.6396L9.69336 90.6074C9.54191 90.5507 9.39377 90.486 9.25 90.4131C3.63072 87.5648 1.63171e-05 81.43 0 74.7832V49.7461C5.15363e-05 22.3159 20.581 0.000253105 45.8789 0ZM63.5498 97.54C62.6609 99.6816 61.4973 101.639 60.0723 103.377C56.3429 107.937 51.3001 110.451 45.8779 110.451C38.3455 110.451 31.4693 105.345 28.209 97.54L28.1367 97.5127L23.7051 100.211C14.3334 106.116 8.73929 116.247 8.73926 127.317V148.676H83.0195V126.692C83.0194 116.017 77.7406 106.102 68.8887 100.131L63.9189 97.4004L63.5498 97.54ZM56.8018 87.0342C53.3831 88.3679 49.706 89.0967 45.877 89.0967C42.0488 89.0966 38.373 88.3683 34.9551 87.0352V87.3975C34.9551 89.2711 35.2331 91.1007 35.7822 92.834C37.4677 98.1431 41.5249 101.712 45.8779 101.712C48.6289 101.712 51.2692 100.337 53.3105 97.8408C54.4617 96.4366 55.3823 94.7068 55.9746 92.835C56.5242 91.1008 56.8018 89.2711 56.8018 87.3975V87.0342ZM45.8789 8.73926C25.3998 8.73952 8.73931 27.1347 8.73926 49.7461V74.7832C8.73927 78.0897 10.4093 81.0998 13.0117 82.5186L26.2158 87.4619V81.8691C18.2608 75.2854 13.1066 64.8157 13.1064 53.0459V39.5537C13.1065 38.1124 13.6394 36.7036 14.8281 35.8887C15.9925 35.091 17.2984 34.848 18.6133 35.3271C19.2546 35.4078 23.0284 35.606 28.083 29.9678C29.5893 28.2878 32.1278 28.03 33.9404 29.375C34.2085 29.572 55.0769 44.7354 72.5801 37.3477C73.9292 36.7777 75.4736 36.9225 76.6943 37.7314C77.9147 38.5409 78.6484 39.909 78.6484 41.373V53.0449C78.6484 64.8141 73.4949 75.2832 65.541 81.8672V87.3975C65.541 87.4191 65.5401 87.4412 65.54 87.4629L78.7471 82.5186C81.3495 81.1002 83.0195 78.0897 83.0195 74.7832V49.7461C83.0195 38.7188 79.1097 28.3713 72.0098 20.6104C65.0058 12.9544 55.7255 8.73926 45.8789 8.73926ZM31.8877 38.5039C28.0936 41.8776 24.5821 43.289 21.8457 43.8135V53.0459C21.8459 68.1057 32.6259 80.3572 45.877 80.3574C59.1282 80.3574 69.909 68.1055 69.9092 53.0459V47.3135C54.0793 50.7299 38.4286 42.5721 31.8877 38.5039ZM53.4873 66.9707C54.748 65.6763 56.7921 65.6762 58.0527 66.9707C59.3133 68.2654 59.3132 70.3644 58.0527 71.6592C51.1191 78.7799 39.877 78.7799 32.9434 71.6592C31.6829 70.3643 31.6828 68.2654 32.9434 66.9707C34.204 65.6762 36.2481 65.6763 37.5088 66.9707C41.9211 71.5022 49.075 71.5022 53.4873 66.9707ZM34.1006 54.8193C40.2789 53.7065 41.2277 63.3508 34.9521 63.4707C29.8189 63.5876 29.0361 55.7008 34.1006 54.8193ZM56.8027 63.4707C50.5242 63.3521 51.4757 53.7039 57.6553 54.8193C62.7158 55.7 61.9355 63.5893 56.8027 63.4707Z" fill="#8418C3"/>
</svg>
