<svg width="104" height="111" viewBox="0 0 104 111" fill="none" xmlns="http://www.w3.org/2000/svg">
<path d="M51.5703 0C65.4282 8.62161e-05 78.4328 5.87306 88.1885 16.5371C97.8298 27.0755 103.14 41.0606 103.14 55.916V84.0586C103.14 91.5298 99.0585 98.4254 92.7422 101.627C92.5807 101.709 92.4147 101.782 92.2451 101.846L73.96 108.692C73.9211 108.707 73.8811 108.721 73.8418 108.734L69.3271 110.43C68.7583 110.643 68.1747 110.744 67.6016 110.744C65.6137 110.744 63.7431 109.528 63.0029 107.558C62.0499 105.018 63.3358 102.187 65.875 101.233L70.5059 99.4941C70.5475 99.4788 70.5897 99.4636 70.6318 99.4492L88.5146 92.7539C91.4399 91.1596 93.3174 87.7753 93.3174 84.0586V55.916C93.3173 43.521 88.9219 31.8904 80.9414 23.167C73.0688 14.5615 62.6382 9.82333 51.5703 9.82324C28.551 9.82324 9.82343 30.5 9.82324 55.916V84.0586C9.82324 87.7752 11.6998 91.1591 14.625 92.7539L32.7148 99.5264C32.7589 99.5412 32.8026 99.5569 32.8457 99.5732L37.2656 101.233C39.8048 102.187 41.0906 105.018 40.1367 107.558C39.1832 110.096 36.3521 111.384 33.8125 110.429L29.5127 108.814C29.4724 108.801 29.4314 108.785 29.3916 108.771L10.8955 101.846C10.7254 101.782 10.559 101.709 10.3975 101.627C4.08125 98.4254 0 91.5298 0 84.0586V55.916C0.000186998 25.0835 23.1345 0 51.5703 0ZM31.5684 33.6846C33.2615 31.7964 36.114 31.5068 38.1514 33.0186C38.4475 33.2362 61.9067 50.2842 81.583 41.9795C83.0996 41.3387 84.8368 41.5018 86.209 42.4111C87.5806 43.321 88.4052 44.8584 88.4053 46.5039V59.624C88.4053 81.969 71.8807 100.148 51.5693 100.148C31.2579 100.148 14.7334 81.9696 14.7334 59.625V44.46C14.7334 42.8399 15.332 41.257 16.668 40.3408C17.9769 39.4439 19.4456 39.1704 20.9238 39.709C21.6458 39.7997 25.8876 40.0214 31.5684 33.6846ZM35.8447 43.2793C31.58 47.0716 27.6325 48.6585 24.5566 49.248V59.625C24.5567 76.5531 36.6744 90.3252 51.5693 90.3252C66.4642 90.325 78.582 76.5525 78.582 59.625V53.1816C60.7888 57.022 43.1971 47.8521 35.8447 43.2793ZM60.4258 74.916C61.9432 73.4287 64.4034 73.4287 65.9209 74.916C67.4384 76.4038 67.4384 78.816 65.9209 80.3037C57.5746 88.4852 44.0424 88.4854 35.6963 80.3037C34.1789 78.816 34.1789 76.4037 35.6963 74.916C37.2138 73.4285 39.6749 73.4285 41.1924 74.916C46.5036 80.1227 55.1147 80.1227 60.4258 74.916ZM38.3281 61.6182C45.2727 60.3673 46.3391 71.209 39.2852 71.3438C33.5152 71.4751 32.6352 62.6087 38.3281 61.6182ZM63.8555 71.3438C56.7984 71.2103 57.8678 60.3658 64.8135 61.6191C70.5024 62.6086 69.6254 71.4776 63.8555 71.3438Z" fill="#8418C3"/>
</svg>
