<svg width="30" height="31" viewBox="0 0 30 31" fill="none" xmlns="http://www.w3.org/2000/svg">
<path d="M2 13.411C2 12.2024 2.54645 11.0586 3.48665 10.2992L12.4867 3.03001C13.9529 1.8457 16.0471 1.8457 17.5133 3.03001L26.5133 10.2992C27.4536 11.0586 28 12.2024 28 13.411V25C28 27.2091 26.2091 29 24 29H20.1053C19.553 29 19.1053 28.5523 19.1053 28V22.6C19.1053 21.4954 18.2098 20.6 17.1053 20.6H12.8947C11.7902 20.6 10.8947 21.4954 10.8947 22.6V28C10.8947 28.5523 10.447 29 9.89474 29H6C3.79086 29 2 27.2091 2 25L2 13.411Z" stroke="#8418C3" stroke-width="3"/>
</svg>
