<svg width="29" height="35" viewBox="0 0 29 35" fill="none" xmlns="http://www.w3.org/2000/svg">
<path fill-rule="evenodd" clip-rule="evenodd" d="M0 4.34991C0 1.95415 1.95415 0 4.34991 0H10.1498C12.5456 0 14.4997 1.95415 14.4997 4.34991V30.4494C14.4997 32.8452 12.5456 34.7993 10.1498 34.7993H4.34991C1.95415 34.7993 0 32.8452 0 30.4494V4.34991ZM4.34991 2.89994C3.55573 2.89994 2.89994 3.55573 2.89994 4.34991V30.4494C2.89994 31.2435 3.55573 31.8993 4.34991 31.8993H10.1498C10.944 31.8993 11.5998 31.2435 11.5998 30.4494V4.34991C11.5998 3.55573 10.944 2.89994 10.1498 2.89994H4.34991Z" fill="#8418C3"/>
<path fill-rule="evenodd" clip-rule="evenodd" d="M0 14.4997C0 13.6989 0.649181 13.0497 1.44997 13.0497H7.24985C8.05064 13.0497 8.69982 13.6989 8.69982 14.4997C8.69982 15.3005 8.05064 15.9497 7.24985 15.9497H1.44997C0.649181 15.9497 0 15.3005 0 14.4997Z" fill="#8418C3"/>
<path fill-rule="evenodd" clip-rule="evenodd" d="M0 26.0995C0 25.2987 0.649181 24.6495 1.44997 24.6495H7.24985C8.05064 24.6495 8.69982 25.2987 8.69982 26.0995C8.69982 26.9003 8.05064 27.5494 7.24985 27.5494H1.44997C0.649181 27.5494 0 26.9003 0 26.0995Z" fill="#8418C3"/>
<path fill-rule="evenodd" clip-rule="evenodd" d="M0 8.69982C0 7.89903 0.649181 7.24985 1.44997 7.24985H5.79988C6.60067 7.24985 7.24985 7.89903 7.24985 8.69982C7.24985 9.50061 6.60067 10.1498 5.79988 10.1498H1.44997C0.649181 10.1498 0 9.50061 0 8.69982Z" fill="#8418C3"/>
<path fill-rule="evenodd" clip-rule="evenodd" d="M0 20.2996C0 19.4988 0.649181 18.8496 1.44997 18.8496H5.79988C6.60067 18.8496 7.24985 19.4988 7.24985 20.2996C7.24985 21.1004 6.60067 21.7495 5.79988 21.7495H1.44997C0.649181 21.7495 0 21.1004 0 20.2996Z" fill="#8418C3"/>
<path fill-rule="evenodd" clip-rule="evenodd" d="M22.175 0.424686C22.7412 -0.141562 23.6593 -0.141562 24.2255 0.424686L28.5754 4.77459C29.1416 5.34085 29.1416 6.25891 28.5754 6.82517C28.0092 7.39141 27.0911 7.39141 26.5249 6.82517L23.2002 3.50053L19.8756 6.82517C19.3094 7.39141 18.3913 7.39141 17.8251 6.82517C17.2588 6.25891 17.2588 5.34085 17.8251 4.77459L22.175 0.424686Z" fill="#8418C3"/>
<path fill-rule="evenodd" clip-rule="evenodd" d="M17.8251 27.9742C18.3913 27.4079 19.3094 27.4079 19.8756 27.9742L23.2002 31.2988L26.5249 27.9742C27.0911 27.4079 28.0092 27.4079 28.5754 27.9742C29.1416 28.5404 29.1416 29.4585 28.5754 30.0247L24.2255 34.3746C23.6593 34.9408 22.7412 34.9408 22.175 34.3746L17.8251 30.0247C17.2588 29.4585 17.2588 28.5404 17.8251 27.9742Z" fill="#8418C3"/>
<path fill-rule="evenodd" clip-rule="evenodd" d="M23.2 0C24.0008 0 24.6499 0.649173 24.6499 1.44997V33.3493C24.6499 34.1501 24.0008 34.7993 23.2 34.7993C22.3992 34.7993 21.75 34.1501 21.75 33.3493V1.44997C21.75 0.649173 22.3992 0 23.2 0Z" fill="#8418C3"/>
</svg>
