<svg width="33" height="40" viewBox="0 0 33 40" fill="none" xmlns="http://www.w3.org/2000/svg">
<path fill-rule="evenodd" clip-rule="evenodd" d="M0 4.95001C0 2.22374 2.22374 0 4.95001 0H11.55C14.2763 0 16.5 2.22374 16.5 4.95001V34.65C16.5 37.3763 14.2763 39.6 11.55 39.6H4.95001C2.22374 39.6 0 37.3763 0 34.65V4.95001ZM4.95001 3.3C4.04627 3.3 3.3 4.04627 3.3 4.95001V34.65C3.3 35.5537 4.04627 36.3 4.95001 36.3H11.55C12.4538 36.3 13.2 35.5537 13.2 34.65V4.95001C13.2 4.04627 12.4538 3.3 11.55 3.3H4.95001Z" fill="#8418C3"/>
<path fill-rule="evenodd" clip-rule="evenodd" d="M0 16.5C0 15.5888 0.738739 14.85 1.65 14.85H8.25001C9.16127 14.85 9.90001 15.5888 9.90001 16.5C9.90001 17.4113 9.16127 18.15 8.25001 18.15H1.65C0.738739 18.15 0 17.4113 0 16.5Z" fill="#8418C3"/>
<path fill-rule="evenodd" clip-rule="evenodd" d="M0 29.7C0 28.7887 0.738739 28.05 1.65 28.05H8.25001C9.16127 28.05 9.90001 28.7887 9.90001 29.7C9.90001 30.6113 9.16127 31.35 8.25001 31.35H1.65C0.738739 31.35 0 30.6113 0 29.7Z" fill="#8418C3"/>
<path fill-rule="evenodd" clip-rule="evenodd" d="M0 9.90002C0 8.98875 0.738739 8.25002 1.65 8.25002H6.60001C7.51127 8.25002 8.25001 8.98875 8.25001 9.90002C8.25001 10.8113 7.51127 11.55 6.60001 11.55H1.65C0.738739 11.55 0 10.8113 0 9.90002Z" fill="#8418C3"/>
<path fill-rule="evenodd" clip-rule="evenodd" d="M0 23.1C0 22.1887 0.738739 21.45 1.65 21.45H6.60001C7.51127 21.45 8.25001 22.1887 8.25001 23.1C8.25001 24.0113 7.51127 24.75 6.60001 24.75H1.65C0.738739 24.75 0 24.0113 0 23.1Z" fill="#8418C3"/>
<path fill-rule="evenodd" clip-rule="evenodd" d="M25.234 0.483274C25.8784 -0.161091 26.9231 -0.161091 27.5675 0.483274L32.5175 5.43328C33.1618 6.07765 33.1618 7.12237 32.5175 7.76674C31.8731 8.4111 30.8284 8.4111 30.184 7.76674L26.4007 3.98345L22.6175 7.76674C21.9731 8.4111 20.9284 8.4111 20.284 7.76674C19.6397 7.12237 19.6397 6.07765 20.284 5.43328L25.234 0.483274Z" fill="#8418C3"/>
<path fill-rule="evenodd" clip-rule="evenodd" d="M20.284 31.8333C20.9284 31.189 21.9731 31.189 22.6175 31.8333L26.4007 35.6166L30.184 31.8333C30.8284 31.189 31.8731 31.189 32.5175 31.8333C33.1618 32.4777 33.1618 33.5224 32.5175 34.1668L27.5675 39.1168C26.9231 39.7611 25.8784 39.7611 25.234 39.1168L20.284 34.1668C19.6397 33.5224 19.6397 32.4777 20.284 31.8333Z" fill="#8418C3"/>
<path fill-rule="evenodd" clip-rule="evenodd" d="M26.4 0C27.3113 0 28.05 0.738731 28.05 1.65V37.95C28.05 38.8613 27.3113 39.6 26.4 39.6C25.4887 39.6 24.75 38.8613 24.75 37.95V1.65C24.75 0.738731 25.4887 0 26.4 0Z" fill="#8418C3"/>
</svg>
