<svg width="175" height="176" viewBox="0 0 175 176" fill="none" xmlns="http://www.w3.org/2000/svg">
<rect width="175" height="176" rx="30" fill="#8418C3"/>
<path d="M108.271 50C116.248 50 123.49 53.2806 128.734 58.5596C133.979 63.8385 137.238 71.1273 137.238 79.1553V110.471C137.238 115.068 133.542 118.788 128.975 118.788C124.407 118.788 120.712 115.068 120.712 110.471V79.1553C120.712 75.7246 119.312 72.5939 117.051 70.3184C114.79 68.0429 111.68 66.6338 108.271 66.6338C104.863 66.6339 101.753 68.0428 99.4922 70.3184C97.2314 72.5939 95.8311 75.7246 95.8311 79.1553V110.471C95.8311 115.068 92.1359 118.788 87.5684 118.788C87.5664 118.788 87.5645 118.787 87.5625 118.787C87.5605 118.787 87.5586 118.788 87.5566 118.788C82.9891 118.788 79.2939 115.068 79.2939 110.471V79.1553C79.2939 75.7246 77.8936 72.5939 75.6328 70.3184C73.372 68.0428 70.2619 66.6339 66.8535 66.6338C63.4452 66.6338 60.335 68.0429 58.0742 70.3184C55.8134 72.5939 54.4131 75.7246 54.4131 79.1553V110.471C54.4131 115.068 50.7178 118.788 46.1504 118.788C41.5828 118.788 37.8867 115.068 37.8867 110.471V79.1553C37.8868 71.1273 41.1462 63.8385 46.3906 58.5596C51.6353 53.2806 58.8775 50 66.8535 50C74.8295 50.0001 82.0708 53.2806 87.3154 58.5596C87.3987 58.6433 87.4803 58.7287 87.5625 58.8135C87.6447 58.7287 87.7263 58.6433 87.8096 58.5596C93.0542 53.2807 100.296 50.0001 108.271 50Z" fill="#FFC87B"/>
</svg>
