<svg width="225" height="68" viewBox="0 0 225 68" fill="none" xmlns="http://www.w3.org/2000/svg">
<path fill-rule="evenodd" clip-rule="evenodd" d="M11.1716 61.5478C11.1716 64.6557 8.67352 67.1701 5.58581 67.1701C2.49809 67.1701 0 64.6557 0 61.5478V40.378C0 34.9509 2.20327 30.0235 5.74872 26.4549C9.29416 22.8862 14.1895 20.6686 19.5814 20.6686C24.9733 20.6686 29.8686 22.8862 33.4141 26.4549C36.9595 30.0235 39.1628 34.9509 39.1628 40.378V61.5478C39.1628 64.6557 36.6647 67.1701 33.577 67.1701C30.4892 67.1701 27.9912 64.6557 27.9912 61.5478V40.378C27.9912 38.0588 27.0447 35.9426 25.5163 34.4043C23.988 32.8659 21.8855 31.9133 19.5814 31.9133C17.2772 31.9133 15.1748 32.8659 13.6465 34.4043C12.1181 35.9426 11.1716 38.0588 11.1716 40.378V61.5478Z" fill="#8418C3"/>
<path fill-rule="evenodd" clip-rule="evenodd" d="M86.5642 61.5475C86.5642 64.6554 84.0661 67.1699 80.9784 67.1699C77.8907 67.1699 75.3926 64.6554 75.3926 61.5475V26.3219C75.3926 23.214 77.8907 20.6995 80.9784 20.6995C84.0661 20.6995 86.5642 23.214 86.5642 26.3219V61.5475Z" fill="#8418C3"/>
<path fill-rule="evenodd" clip-rule="evenodd" d="M150.896 61.5476C150.896 64.6556 148.398 67.17 145.31 67.17C142.223 67.17 139.725 64.6556 139.725 61.5476V6.28455C139.725 3.17664 142.223 0.662186 145.31 0.662186C148.398 0.662186 150.896 3.17664 150.896 6.28455V61.5476Z" fill="#8418C3"/>
<path fill-rule="evenodd" clip-rule="evenodd" d="M39.1619 61.5478C39.1619 64.6557 36.6638 67.1701 33.576 67.1701C30.4883 67.1701 27.9902 64.6557 27.9902 61.5478V40.378C27.9902 34.9509 30.1935 30.0235 33.739 26.4549C37.2844 22.8862 42.1798 20.6686 47.5717 20.6686C52.9635 20.6686 57.8588 22.8862 61.4043 26.4549C64.9497 30.0235 67.153 34.9509 67.153 40.378V61.5478C67.153 64.6557 64.6549 67.1701 61.5672 67.1701C58.4795 67.1701 55.9814 64.6557 55.9814 61.5478V40.378C55.9814 38.0588 55.0349 35.9426 53.5066 34.4043C51.9782 32.8659 49.8758 31.9133 47.5717 31.9133C45.2675 31.9133 43.165 32.8659 41.6367 34.4043C40.1084 35.9426 39.1619 38.0588 39.1619 40.378V61.5478Z" fill="#8418C3"/>
<path fill-rule="evenodd" clip-rule="evenodd" d="M104.627 61.5478C104.627 64.6557 102.129 67.1701 99.0409 67.1701C95.9532 67.1701 93.4551 64.6557 93.4551 61.5478V40.378C93.4551 34.9509 95.6584 30.0235 99.2038 26.4549C102.749 22.8862 107.645 20.6686 113.037 20.6686C118.428 20.6686 123.324 22.8862 126.869 26.4549C130.415 30.0235 132.618 34.9509 132.618 40.378V61.5478C132.618 64.6557 130.12 67.1701 127.032 67.1701C123.944 67.1701 121.446 64.6557 121.446 61.5478V40.378C121.446 38.0588 120.5 35.9426 118.971 34.4043C117.443 32.8659 115.341 31.9133 113.037 31.9133C110.732 31.9133 108.63 32.8659 107.102 34.4043C105.573 35.9426 104.627 38.0588 104.627 40.378V61.5478Z" fill="#8418C3"/>
<path fill-rule="evenodd" clip-rule="evenodd" d="M185.838 26.2829C185.838 23.175 188.336 20.6606 191.424 20.6606C194.511 20.6606 197.01 23.175 197.01 26.2829V47.4527C197.01 49.7719 197.956 51.8881 199.484 53.4264C201.013 54.9648 203.115 55.9175 205.419 55.9175C207.723 55.9175 209.826 54.9648 211.354 53.4264C212.883 51.8881 213.829 49.7719 213.829 47.4527V26.2829C213.829 23.175 216.327 20.6606 219.415 20.6606C222.503 20.6606 225.001 23.175 225.001 26.2829V47.4527C225.001 52.8798 222.797 57.8072 219.252 61.3758C215.707 64.9445 210.811 67.1622 205.419 67.1622C200.027 67.1622 195.132 64.9445 191.587 61.3758C188.041 57.8072 185.838 52.8798 185.838 47.4527V26.2829Z" fill="#8418C3"/>
<path fill-rule="evenodd" clip-rule="evenodd" d="M152.056 53.5357C149.9 55.7456 146.37 55.769 144.182 53.5981C141.994 51.4273 141.963 47.8743 144.12 45.6722L166.843 22.3862C169 20.1763 172.53 20.1529 174.718 22.3238C176.913 24.4946 176.937 28.0476 174.78 30.2497L152.056 53.5357Z" fill="#8418C3"/>
<path fill-rule="evenodd" clip-rule="evenodd" d="M156.365 46.2655C154.488 43.8136 154.937 40.2918 157.366 38.402C159.802 36.5123 163.301 36.9652 165.178 39.4094L179.166 57.6898C181.043 60.1418 180.593 63.6636 178.165 65.5533C175.737 67.4431 172.23 66.9901 170.353 64.546L156.365 46.2655Z" fill="#8418C3"/>
<path fill-rule="evenodd" clip-rule="evenodd" d="M197.01 15.3504C200.09 15.3504 202.595 12.8282 202.595 9.72805C202.595 6.62794 200.09 4.10568 197.01 4.10568C193.93 4.10568 191.424 6.62794 191.424 9.72805C191.424 12.8282 193.93 15.3504 197.01 15.3504Z" fill="#8418C3"/>
<path fill-rule="evenodd" clip-rule="evenodd" d="M213.836 15.3504C216.916 15.3504 219.422 12.8282 219.422 9.72805C219.422 6.62794 216.916 4.10568 213.836 4.10568C210.756 4.10568 208.25 6.62794 208.25 9.72805C208.25 12.8282 210.756 15.3504 213.836 15.3504Z" fill="#8418C3"/>
</svg>
