<svg width="35" height="46" viewBox="0 0 35 46" fill="none" xmlns="http://www.w3.org/2000/svg">
<path d="M31.2879 0H10.0757C8.0289 0 6.36365 1.66525 6.36365 3.71209V19.2509C2.73726 19.99 0 23.2041 0 27.0455V33.4091C0 37.2506 2.73717 40.4645 6.36365 41.2037V41.894C6.36365 43.9408 8.0289 45.6061 10.0757 45.6061H31.2879C33.3348 45.6061 35 43.9408 35 41.894V3.71209C35 1.66525 33.3348 0 31.2879 0ZM6.36365 25.4545V37.9093C4.51171 37.2526 3.18183 35.4832 3.18183 33.4091V27.0455C3.18183 24.4138 5.32291 22.2728 7.95452 22.2728H16.4394C17.3166 22.2728 18.0303 22.9864 18.0303 23.8637C18.0303 24.7409 17.3166 25.4545 16.4394 25.4545H6.36365ZM31.8182 41.894C31.8182 42.1864 31.5803 42.4243 31.2879 42.4243H10.0757C9.78331 42.4243 9.54548 42.1863 9.54548 41.894V35H31.8183V41.894H31.8182ZM31.8182 31.8182H9.54548V28.6363H16.4394C19.0711 28.6363 21.2121 26.4953 21.2121 23.8637C21.2121 21.232 19.071 19.091 16.4394 19.091H9.54548V9.54548H31.8183V31.8182H31.8182ZM31.8182 6.36365H9.54548V3.71209C9.54548 3.41965 9.7834 3.18183 10.0757 3.18183H31.2879C31.5803 3.18183 31.8182 3.41974 31.8182 3.71209V6.36365Z" fill="#8418C3"/>
</svg>
