<svg width="48" height="48" viewBox="0 0 48 48" fill="none" xmlns="http://www.w3.org/2000/svg">
<path d="M31.3337 19.111L21.5558 28.889L16.6668 24M27.0463 3.12152L30.0309 5.66502C30.7829 6.30581 31.7165 6.69322 32.7013 6.77181L36.6101 7.08333C38.9083 7.26672 40.7337 9.091 40.9171 11.3892L41.2279 15.2987C41.3065 16.2835 41.6952 17.2185 42.336 17.9704L44.8784 20.9542C46.3737 22.7089 46.374 25.2901 44.8786 27.0448L42.3363 30.0291C41.6955 30.781 41.3072 31.7164 41.2286 32.7012L40.9159 36.61C40.7325 38.9082 38.9099 40.7336 36.6118 40.917L32.7015 41.229C31.7167 41.3076 30.7822 41.694 30.0303 42.3348L27.0463 44.8783C25.2916 46.3737 22.7089 46.374 20.9542 44.8786L17.9702 42.335C17.2183 41.6942 16.2837 41.3071 15.2989 41.2285L11.3887 40.917C9.09057 40.7336 7.26799 38.9086 7.0846 36.6105L6.77188 32.7014C6.69329 31.7166 6.30501 30.7821 5.66422 30.0301L3.12186 27.0449C1.62651 25.2902 1.62581 22.7099 3.12116 20.9552L5.66581 17.97C6.3066 17.218 6.69115 16.2835 6.76974 15.2987L7.08245 11.3896C7.26584 9.09146 9.09369 7.26649 11.3918 7.08309L15.2977 6.77156C16.2825 6.69297 17.2175 6.30589 17.9694 5.66509L20.9544 3.12152C22.7091 1.62616 25.2916 1.62616 27.0463 3.12152Z" stroke="#4EBD12" stroke-width="3" stroke-linecap="round" stroke-linejoin="round"/>
</svg>
