<svg width="30" height="33" viewBox="0 0 30 33" fill="none" xmlns="http://www.w3.org/2000/svg">
<path d="M21.5741 6.84602C22.1275 7.80212 23.1545 8.4444 24.33 8.4444C26.0918 8.4444 27.52 7.00175 27.52 5.22217C27.52 3.44258 26.0918 1.99994 24.33 1.99994C22.5683 1.99994 21.14 3.44258 21.14 5.22217C21.14 5.81434 21.2982 6.3692 21.5741 6.84602ZM21.5741 6.84602L7.94591 14.8761M7.94591 14.8761C7.39257 13.92 6.36555 13.2777 5.19001 13.2777C3.42821 13.2777 2 14.7204 2 16.5C2 18.2796 3.42821 19.7222 5.19001 19.7222C6.36555 19.7222 7.39257 19.0799 7.94591 18.1238M7.94591 14.8761C8.22187 15.3529 8.38001 15.9078 8.38001 16.5C8.38001 17.0921 8.22187 17.647 7.94591 18.1238M7.94591 18.1238L21.5741 26.1539M21.5741 26.1539C22.1275 25.1978 23.1545 24.5555 24.33 24.5555C26.0918 24.5555 27.52 25.9982 27.52 27.7778C27.52 29.5574 26.0918 31 24.33 31C22.5683 31 21.14 29.5574 21.14 27.7778C21.14 27.1856 21.2982 26.6307 21.5741 26.1539Z" stroke="#8418C3" stroke-width="3" stroke-linecap="round" stroke-linejoin="round"/>
</svg>
