<svg width="45" height="34" viewBox="0 0 45 34" fill="none" xmlns="http://www.w3.org/2000/svg">
<path fill-rule="evenodd" clip-rule="evenodd" d="M27.6464 32.3238L27.3485 32.6332C27.0993 32.8919 26.7557 33.038 26.3966 33.038H18.4675C18.1084 33.038 17.7647 32.8918 17.5156 32.6332L17.2176 32.3238C17.0324 32.1315 16.9099 31.8877 16.866 31.6245C15.4922 23.3866 9.18528 16.7783 1.04071 15.0054C0.331018 14.851 -0.121019 14.1527 0.0286069 13.4419L2.63763 1.04931C2.76637 0.437814 3.3059 -6.67572e-06 3.93082 -6.67572e-06H40.9334C41.5583 -6.67572e-06 42.0978 0.437726 42.2266 1.04931L44.8356 13.4419C44.9852 14.1527 44.5332 14.851 43.8235 15.0054C35.6788 16.7783 29.372 23.3866 27.9982 31.6245C27.9541 31.8877 27.8316 32.1315 27.6464 32.3238ZM13.4323 19.0953C16.307 22.1223 18.3681 25.9241 19.2743 30.1475C19.2919 30.2298 19.3092 30.3123 19.326 30.395H25.5378C25.5826 30.1743 25.6306 29.9547 25.6816 29.7364C26.6307 25.6774 28.6503 22.0236 31.4315 19.0953L25.6406 9.25075H19.2231L13.4323 19.0953ZM11.4556 17.2429L16.1568 9.25075H3.61182L2.87747 12.7388C6.07175 13.6277 8.983 15.1829 11.4556 17.2429ZM41.252 9.25066H28.7071L33.4083 17.2428C35.8809 15.1828 38.7921 13.6276 41.9863 12.7387L41.252 9.25066ZM4.16829 6.60767H18.4451C18.4608 6.60741 18.4765 6.60741 18.4922 6.60767H26.3717C26.3874 6.60741 26.4031 6.60741 26.4188 6.60767H40.6956L39.8609 2.64315H5.00295L4.16829 6.60767Z" fill="#8418C3"/>
</svg>
