<svg width="255" height="236" viewBox="0 0 255 236" fill="none" xmlns="http://www.w3.org/2000/svg">
<path d="M239.483 158.259C225.113 194.369 205.683 223.429 176.813 232.109C145.073 241.649 110.663 228.349 91.033 209.579C70.603 190.049 80.393 178.159 57.543 154.019C31.913 126.939 8.35295 130.009 1.57295 107.409C-3.00705 92.1388 3.45295 76.4288 7.72295 66.0588C15.243 47.7788 26.843 36.8088 32.023 32.0088C76.883 -9.52119 150.053 1.06882 153.153 1.55882C176.553 5.25882 220.273 12.1788 242.553 48.6688C267.083 88.8288 248.223 136.269 239.473 158.269L239.483 158.259Z" fill="#F3E8F9"/>
</svg>
