<svg width="105" height="104" viewBox="0 0 105 104" fill="none" xmlns="http://www.w3.org/2000/svg">
<path d="M89.3161 15.2098C79.4339 5.40152 66.2952 0 52.3199 0C52.3191 0 52.3203 0 52.3195 0C38.3455 0 25.2057 5.40213 15.3241 15.2098C5.44233 25.018 0 38.0587 0 51.9299C0.000408752 60.7598 2.26449 69.4383 6.55884 77.1142L0.113224 99.9974C-0.184756 101.056 0.115268 102.191 0.898029 102.968C1.68079 103.745 2.82448 104.043 3.89132 103.747L26.9472 97.3494C34.68 101.612 43.4234 103.86 52.3201 103.86C66.2956 103.86 79.4343 98.458 89.3165 88.6498C99.1987 78.8415 104.641 65.8006 104.641 51.9297C104.64 38.0585 99.1977 25.018 89.3161 15.2098ZM52.3199 97.7742C44.0741 97.774 35.9802 95.5889 28.9125 91.4552C28.4365 91.1767 27.8986 91.0339 27.3562 91.0339C27.0794 91.0339 26.8019 91.071 26.5307 91.1462L7.48405 96.4313L12.8089 77.5274C13.0335 76.7302 12.9211 75.8768 12.4978 75.1636C8.33303 68.1476 6.1317 60.1135 6.13129 51.9297C6.13129 39.6842 10.9358 28.1717 19.6598 19.5128C28.3838 10.8539 39.9827 6.08553 52.3199 6.08553C77.788 6.08553 98.5085 26.6512 98.5093 51.9297C98.5093 77.2083 77.7889 97.7742 52.3199 97.7742Z" fill="white"/>
<path d="M74.9 55.821C73.026 53.9608 70.5271 52.9364 67.8637 52.9364C65.2003 52.9364 62.7016 53.9608 60.828 55.8208L59.4068 57.2312C59.0563 57.5789 58.5852 57.7706 58.0806 57.7706C57.5756 57.7706 57.1045 57.5789 56.7534 57.2304L46.9693 47.5195C46.6188 47.1718 46.4259 46.704 46.4257 46.2028C46.4257 45.7015 46.6184 45.2342 46.9685 44.8867L48.3901 43.4759C52.2698 39.6251 52.2698 33.3595 48.3903 29.5087L45.5472 26.6861C43.6729 24.8265 41.1742 23.8028 38.511 23.8028C35.8478 23.8028 33.3491 24.8267 31.4749 26.6869L29.3551 28.7913C24.8734 33.2396 23.2465 39.8639 24.7738 47.4444C26.2112 54.5775 30.3198 61.7986 36.343 67.7774C43.9333 75.3103 53.6003 79.8079 62.2027 79.8085H62.2043C67.6246 79.8085 72.2649 78.0469 75.6226 74.7143L77.7426 72.6101C81.6223 68.7594 81.6223 62.4933 77.7426 58.6422L74.9 55.821ZM73.4074 68.307L71.2874 70.4112C69.1043 72.5779 65.9638 73.723 62.2045 73.723H62.2035C55.1909 73.7226 47.1442 69.8913 40.6788 63.4745C35.5019 58.3359 31.9887 52.2191 30.7864 46.2511C29.674 40.7301 30.7054 36.0578 33.691 33.0943L35.8106 30.9902C36.5265 30.2798 37.4854 29.8885 38.5112 29.8885C39.5374 29.8885 40.4967 30.2798 41.2122 30.9898L44.0549 33.8118C45.544 35.29 45.544 37.6948 44.0551 39.1728L42.6335 40.5836C41.125 42.0806 40.2944 44.0767 40.2946 46.2038C40.2948 48.3305 41.1258 50.3263 42.6341 51.8232L52.4182 61.5339C53.9269 63.0317 55.9379 63.8565 58.0808 63.8565C60.2233 63.8565 62.234 63.0319 63.7422 61.5349L65.1637 60.1242C65.8794 59.4137 66.8383 59.0224 67.8639 59.0224C68.8897 59.0224 69.8486 59.4137 70.5647 60.1244L73.4074 62.9459C74.8965 64.4237 74.8967 66.8289 73.4074 68.307Z" fill="white"/>
</svg>
