<svg width="42" height="42" viewBox="0 0 42 42" fill="none" xmlns="http://www.w3.org/2000/svg">
<path d="M35.8491 6.1507C31.8827 2.18433 26.6091 0 20.9998 0C20.9995 0 21 0 20.9997 0C15.3909 0 10.1169 2.18457 6.1507 6.1507C2.18441 10.1171 0 15.3906 0 21C0.000164063 24.5707 0.908906 28.0803 2.63255 31.1843L0.0454453 40.4381C-0.0741562 40.8661 0.0462656 41.3253 0.360445 41.6395C0.674625 41.9537 1.13367 42.074 1.56188 41.9545L10.8159 39.3673C13.9196 41.0912 17.429 41.9999 20.9999 42C26.6093 42 31.8828 39.8156 35.8493 35.8492C39.8158 31.8828 42 26.6092 42 20.9999C41.9998 15.3905 39.8153 10.1171 35.8491 6.1507ZM20.9998 39.5391C17.6902 39.539 14.4415 38.6553 11.6047 36.9837C11.4137 36.8711 11.1978 36.8133 10.98 36.8133C10.869 36.8133 10.7576 36.8283 10.6487 36.8588L3.0039 38.996L5.14114 31.3514C5.2313 31.0291 5.18618 30.684 5.01629 30.3955C3.34466 27.5583 2.4611 24.3094 2.46094 20.9999C2.46094 16.0479 4.38933 11.3924 7.89091 7.89083C11.3925 4.38925 16.048 2.46094 20.9998 2.46094C31.2221 2.46094 39.5387 10.7775 39.5391 20.9999C39.5391 31.2224 31.2224 39.5391 20.9998 39.5391Z" fill="#8418C3"/>
<path d="M30.0663 22.5735C29.3142 21.8213 28.3112 21.4071 27.2422 21.4071C26.1731 21.4071 25.1702 21.8213 24.4182 22.5735L23.8478 23.1438C23.7071 23.2844 23.518 23.3619 23.3155 23.3619C23.1128 23.3619 22.9237 23.2844 22.7828 23.1435L18.8557 19.2165C18.715 19.0759 18.6376 18.8867 18.6375 18.684C18.6375 18.4813 18.7148 18.2923 18.8554 18.1518L19.426 17.5813C20.9832 16.0241 20.9832 13.4903 19.4261 11.9331L18.2849 10.7916C17.5326 10.0397 16.5297 9.62564 15.4607 9.62564C14.3918 9.62564 13.3889 10.0397 12.6367 10.792L11.7858 11.643C9.98697 13.4418 9.334 16.1206 9.94702 19.1861C10.5239 22.0707 12.173 24.9908 14.5906 27.4086C17.6371 30.4549 21.5172 32.2736 24.97 32.2739H24.9706C27.1462 32.2739 29.0087 31.5615 30.3564 30.2138L31.2073 29.3629C32.7645 27.8057 32.7645 25.2718 31.2073 23.7144L30.0663 22.5735ZM29.4673 27.6228L28.6163 28.4737C27.7401 29.3499 26.4796 29.813 24.9707 29.813H24.9703C22.1556 29.8128 18.9259 28.2635 16.3309 25.6686C14.253 23.5906 12.8429 21.117 12.3603 18.7035C11.9138 16.4709 12.3278 14.5815 13.5261 13.3831L14.3769 12.5322C14.6642 12.2449 15.0491 12.0867 15.4608 12.0867C15.8727 12.0867 16.2578 12.2449 16.545 12.532L17.6859 13.6732C18.2836 14.271 18.2836 15.2435 17.686 15.8411L17.1154 16.4117C16.5099 17.0171 16.1766 17.8243 16.1766 18.6844C16.1767 19.5444 16.5103 20.3516 17.1156 20.9569L21.0427 24.8838C21.6483 25.4895 22.4555 25.823 23.3156 25.823C24.1755 25.823 24.9825 25.4896 25.5879 24.8842L26.1584 24.3137C26.4457 24.0264 26.8306 23.8682 27.2422 23.8682C27.654 23.8682 28.0388 24.0264 28.3263 24.3138L29.4673 25.4548C30.0649 26.0524 30.065 27.025 29.4673 27.6228Z" fill="#8418C3"/>
</svg>
