<svg width="175" height="176" viewBox="0 0 175 176" fill="none" xmlns="http://www.w3.org/2000/svg">
<rect width="175" height="176" rx="30" fill="#8418C3"/>
<path d="M125.316 48.2098C115.434 38.4015 102.295 33 88.3199 33C88.3191 33 88.3203 33 88.3195 33C74.3455 33 61.2057 38.4021 51.3241 48.2098C41.4423 58.018 36 71.0587 36 84.9299C36.0004 93.7598 38.2645 102.438 42.5588 110.114L36.1132 132.997C35.8152 134.056 36.1153 135.191 36.898 135.968C37.6808 136.745 38.8245 137.043 39.8913 136.747L62.9472 130.349C70.68 134.612 79.4234 136.86 88.3201 136.86C102.296 136.86 115.434 131.458 125.316 121.65C135.199 111.841 140.641 98.8006 140.641 84.9297C140.64 71.0585 135.198 58.018 125.316 48.2098ZM88.3199 130.774C80.0741 130.774 71.9802 128.589 64.9125 124.455C64.4365 124.177 63.8986 124.034 63.3562 124.034C63.0794 124.034 62.8019 124.071 62.5307 124.146L43.4841 129.431L48.8089 110.527C49.0335 109.73 48.9211 108.877 48.4978 108.164C44.333 101.148 42.1317 93.1135 42.1313 84.9297C42.1313 72.6842 46.9358 61.1717 55.6598 52.5128C64.3838 43.8539 75.9827 39.0855 88.3199 39.0855C113.788 39.0855 134.509 59.6512 134.509 84.9297C134.509 110.208 113.789 130.774 88.3199 130.774Z" fill="white"/>
<path d="M110.9 88.821C109.026 86.9608 106.527 85.9364 103.864 85.9364C101.2 85.9364 98.7016 86.9608 96.828 88.8208L95.4068 90.2312C95.0563 90.5789 94.5852 90.7706 94.0806 90.7706C93.5756 90.7706 93.1045 90.5789 92.7534 90.2304L82.9693 80.5195C82.6188 80.1718 82.4259 79.704 82.4257 79.2028C82.4257 78.7015 82.6184 78.2342 82.9685 77.8867L84.3901 76.4759C88.2698 72.6251 88.2698 66.3595 84.3903 62.5087L81.5472 59.6861C79.6729 57.8265 77.1742 56.8028 74.511 56.8028C71.8478 56.8028 69.3491 57.8267 67.4749 59.6869L65.3551 61.7913C60.8734 66.2396 59.2465 72.8639 60.7738 80.4444C62.2112 87.5775 66.3198 94.7986 72.343 100.777C79.9333 108.31 89.6003 112.808 98.2027 112.808H98.2043C103.625 112.808 108.265 111.047 111.623 107.714L113.743 105.61C117.622 101.759 117.622 95.4933 113.743 91.6422L110.9 88.821ZM109.407 101.307L107.287 103.411C105.104 105.578 101.964 106.723 98.2045 106.723H98.2035C91.1909 106.723 83.1442 102.891 76.6788 96.4745C71.5019 91.3359 67.9887 85.2191 66.7864 79.2511C65.674 73.7301 66.7054 69.0578 69.691 66.0943L71.8106 63.9902C72.5265 63.2798 73.4854 62.8885 74.5112 62.8885C75.5374 62.8885 76.4967 63.2798 77.2122 63.9898L80.0549 66.8118C81.544 68.29 81.544 70.6948 80.0551 72.1728L78.6335 73.5836C77.125 75.0806 76.2944 77.0767 76.2946 79.2038C76.2948 81.3305 77.1258 83.3263 78.6341 84.8232L88.4182 94.5339C89.9269 96.0317 91.9379 96.8565 94.0808 96.8565C96.2233 96.8565 98.234 96.0319 99.7422 94.5349L101.164 93.1242C101.879 92.4137 102.838 92.0224 103.864 92.0224C104.89 92.0224 105.849 92.4137 106.565 93.1244L109.407 95.9459C110.896 97.4237 110.897 99.8289 109.407 101.307Z" fill="white"/>
</svg>
